<svg width="25" height="30" viewBox="0 0 25 30" fill="none" xmlns="http://www.w3.org/2000/svg">
<g clip-path="url(#clip0_1_171)">
<path d="M21.3175 27.4036L21.3816 1.12333L1.78852 1.03988L1.72437 27.3201L21.3175 27.4036ZM2.81579 26.1302L2.87411 2.23907L20.2902 2.31325L20.2319 26.2044L2.81579 26.1302Z" fill="#A8B5DB"/>
<path d="M5.05425 14.5407C5.08474 17.2522 6.73469 19.6841 9.26629 20.6591C11.8179 21.6409 14.8315 20.8327 16.5638 18.7215C18.2876 16.619 18.5554 13.5845 17.1613 11.2323C15.7698 8.88519 13.0339 7.67077 10.3651 8.14596C7.32208 8.68728 5.13808 11.4214 5.05676 14.471C5.05473 14.4942 5.05389 14.5174 5.05425 14.5407ZM16.125 17.3048C14.9936 19.1913 12.7359 20.2247 10.572 19.803C8.25335 19.3522 6.55234 17.4323 6.27717 15.1353L9.4666 15.1429C9.74045 16.0603 10.5323 16.7538 11.5558 16.7562C12.5468 16.7585 13.4008 16.0686 13.6691 15.1528L16.8425 15.1603C16.7602 15.9186 16.5155 16.6501 16.125 17.3048ZM10.547 14.5534C10.617 13.2551 12.5781 13.238 12.5749 14.5582C12.5717 15.8783 10.6093 15.8526 10.547 14.5534ZM9.75706 9.5324C11.8741 8.77713 14.274 9.44759 15.697 11.1907C16.3416 11.987 16.7408 12.9544 16.8458 13.9745L13.6747 13.967C13.4126 13.0486 12.5522 12.356 11.5665 12.3537C10.5414 12.3512 9.74782 13.0423 9.46949 13.9571L6.27906 13.9495C6.52624 11.9671 7.83677 10.2171 9.75706 9.5324Z" fill="#A8B5DB"/>
</g>
<defs>
<clipPath id="clip0_1_171">
<rect width="28.669" height="24.0229" fill="white" transform="translate(0 28.6638) rotate(-88.9085)"/>
</clipPath>
</defs>
</svg>

