<svg width="20" height="20" viewBox="0 0 20 20" fill="none" xmlns="http://www.w3.org/2000/svg">
<g clip-path="url(#clip0_5_191)">
<path d="M18.439 8.28595C18.439 8.09893 18.3649 7.91958 18.2329 7.78733C18.1009 7.65509 17.9219 7.5808 17.7353 7.5808C17.5486 7.5808 17.3696 7.65509 17.2376 7.78733C17.1056 7.91958 17.0315 8.09893 17.0315 8.28595H18.439ZM5.30185 8.28595C5.30185 8.09893 5.2277 7.91958 5.09572 7.78733C4.96374 7.65509 4.78473 7.5808 4.59807 7.5808C4.41142 7.5808 4.23241 7.65509 4.10043 7.78733C3.96844 7.91958 3.8943 8.09893 3.8943 8.28595H5.30185ZM19.1147 10.6647C19.1791 10.7339 19.2568 10.7895 19.3431 10.8281C19.4295 10.8666 19.5226 10.8873 19.6171 10.889C19.7116 10.8907 19.8055 10.8732 19.8931 10.8378C19.9808 10.8023 20.0604 10.7495 20.1272 10.6826C20.194 10.6156 20.2467 10.5358 20.2821 10.448C20.3175 10.3602 20.3349 10.2662 20.3332 10.1715C20.3316 10.0768 20.3109 9.98345 20.2724 9.89695C20.2339 9.81046 20.1785 9.73261 20.1093 9.66805L19.1147 10.6647ZM11.1667 1.70453L11.664 1.20622C11.532 1.07417 11.3532 1 11.1667 1C10.9802 1 10.8013 1.07417 10.6693 1.20622L11.1667 1.70453ZM2.224 9.66805C2.15485 9.73261 2.09939 9.81046 2.06093 9.89695C2.02246 9.98345 2.00178 10.0768 2.00011 10.1715C1.99844 10.2662 2.01583 10.3602 2.05122 10.448C2.08662 10.5358 2.1393 10.6156 2.20613 10.6826C2.27296 10.7495 2.35257 10.8023 2.4402 10.8378C2.52783 10.8732 2.6217 10.8907 2.71619 10.889C2.81069 10.8873 2.90388 10.8666 2.99021 10.8281C3.07654 10.7895 3.15424 10.7339 3.21867 10.6647L2.224 9.66805ZM6.47482 19.3333H15.8585V17.923H6.47482V19.3333ZM18.439 16.7478V8.28595H17.0315V16.7478H18.439ZM5.30185 16.7478V8.28595H3.8943V16.7478H5.30185ZM20.1093 9.66805L11.664 1.20622L10.6693 2.20284L19.1147 10.6647L20.1093 9.66805ZM10.6693 1.20622L2.224 9.66805L3.21867 10.6647L11.664 2.20284L10.6693 1.20622ZM15.8585 19.3333C16.5429 19.3333 17.1993 19.0609 17.6832 18.576C18.1672 18.0912 18.439 17.4335 18.439 16.7478H17.0315C17.0315 17.3965 16.506 17.923 15.8585 17.923V19.3333ZM6.47482 17.923C5.82734 17.923 5.30185 17.3965 5.30185 16.7478H3.8943C3.8943 17.4335 4.16617 18.0912 4.65011 18.576C5.13405 19.0609 5.79042 19.3333 6.47482 19.3333V17.923Z" fill="#A8B5DB"/>
</g>
<defs>
<clipPath id="clip0_5_191">
<rect width="20" height="20" fill="white"/>
</clipPath>
</defs>
</svg>
