<svg width="23" height="23" viewBox="0 0 23 23" fill="none" xmlns="http://www.w3.org/2000/svg">
<path fill-rule="evenodd" clip-rule="evenodd" d="M7.3291 1H16.6709C17.254 0.99998 17.7493 0.99997 18.1585 1.04228C18.5942 1.08733 18.9968 1.18515 19.3773 1.42026C19.7577 1.65538 20.0253 1.9718 20.2604 2.34137C20.4813 2.68848 20.7027 3.13141 20.9635 3.6531L20.9804 3.6868C20.9903 3.7067 20.9994 3.72702 21.0076 3.74771L22.4439 7.37836C22.6147 7.81037 22.8041 8.34933 22.8595 8.90085C22.9162 9.46497 22.8384 10.1112 22.3964 10.6717C22.0349 11.1302 21.5321 11.4744 20.9535 11.6381V21.4651H22.2326C22.6564 21.4651 23 21.8087 23 22.2326C23 22.6564 22.6564 23 22.2326 23H1.76744C1.3436 23 1 22.6564 1 22.2326C1 21.8087 1.3436 21.4651 1.76744 21.4651H3.04651V11.6382C2.46782 11.4744 1.96505 11.1302 1.60347 10.6717C1.16146 10.1112 1.08372 9.46496 1.14037 8.90084C1.19575 8.34932 1.38514 7.81037 1.55604 7.37836L2.99229 3.74771C3.00048 3.72702 3.00955 3.7067 3.01951 3.6868L3.03638 3.65305C3.29719 3.13139 3.51863 2.68846 3.73949 2.34137C3.97465 1.9718 4.24222 1.65538 4.62264 1.42026C5.00306 1.18515 5.40574 1.08733 5.84145 1.04228C6.25067 0.99997 6.74588 0.99998 7.3291 1ZM18.1394 10.8616C18.4832 11.2257 18.9231 11.4982 19.4186 11.6383V21.4651H15.3256V18.6182C15.3256 18.1682 15.3256 17.78 15.2967 17.4615C15.2662 17.1247 15.1986 16.7911 15.0172 16.4767C14.8151 16.1268 14.5244 15.8361 14.1744 15.634C13.8601 15.4526 13.5265 15.3849 13.1897 15.3544C12.8712 15.3256 12.483 15.3256 12.0329 15.3256H11.9671C11.517 15.3256 11.1288 15.3256 10.8103 15.3544C10.4735 15.3849 10.1399 15.4526 9.82558 15.634C9.47559 15.8361 9.18494 16.1268 8.98287 16.4767C8.80137 16.7911 8.73379 17.1247 8.70325 17.4615C8.67439 17.78 8.6744 18.1682 8.67442 18.6181V21.4651H4.5814V11.6383C5.07678 11.4981 5.51663 11.2257 5.86038 10.8616C6.37342 11.4051 7.10055 11.7442 7.90688 11.7442C8.71323 11.7442 9.44036 11.4051 9.95341 10.8616C10.4664 11.4051 11.1936 11.7442 11.9999 11.7442C12.8062 11.7442 13.5333 11.4051 14.0464 10.8616C14.5595 11.4051 15.2866 11.7442 16.0929 11.7442C16.8992 11.7442 17.6264 11.4051 18.1394 10.8616ZM10.2093 21.4651H13.7907V18.6512C13.7907 18.1589 13.79 17.8409 13.7681 17.6C13.7472 17.3696 13.712 17.286 13.6879 17.2442C13.6205 17.1275 13.5236 17.0306 13.407 16.9633C13.3651 16.9392 13.2815 16.904 13.0512 16.8831C12.8102 16.8612 12.4923 16.8605 12 16.8605C11.5077 16.8605 11.1898 16.8612 10.9488 16.8831C10.7185 16.904 10.6349 16.9392 10.593 16.9633C10.4764 17.0306 10.3795 17.1275 10.3121 17.2442C10.288 17.286 10.2528 17.3696 10.2319 17.6C10.21 17.8409 10.2093 18.1589 10.2093 18.6512V21.4651ZM6.62781 8.93023C6.62781 9.63665 7.20048 10.2093 7.90688 10.2093C8.6133 10.2093 9.18596 9.63665 9.18596 8.93023C9.18596 8.50639 9.52955 8.16279 9.9534 8.16279C10.3772 8.16279 10.7208 8.50639 10.7208 8.93023C10.7208 9.63665 11.2935 10.2093 11.9999 10.2093C12.7064 10.2093 13.279 9.63665 13.279 8.93023C13.279 8.50639 13.6226 8.16279 14.0464 8.16279C14.4702 8.16279 14.8139 8.50639 14.8139 8.93023C14.8139 9.63665 15.3866 10.2093 16.0929 10.2093C16.7994 10.2093 17.372 9.63665 17.372 8.93023C17.372 8.50639 17.7156 8.16279 18.1394 8.16279C18.5633 8.16279 18.9069 8.50639 18.9069 8.93023C18.9069 9.63665 19.4796 10.2093 20.1859 10.2093C20.5932 10.2093 20.9557 10.0199 21.1912 9.72126C21.3077 9.57344 21.3641 9.37119 21.3323 9.05419C21.2992 8.72459 21.1776 8.34979 21.0166 7.94298L19.5927 4.34338C19.3187 3.79558 19.1357 3.43278 18.9654 3.16533C18.8018 2.90807 18.6844 2.79645 18.5703 2.72592C18.4562 2.65538 18.3039 2.60038 18.0006 2.56902C17.6796 2.53584 17.2642 2.53488 16.6331 2.53488H7.36684C6.73569 2.53488 6.32032 2.53584 5.99931 2.56902C5.696 2.60038 5.54371 2.65538 5.42957 2.72592C5.31545 2.79645 5.19815 2.90807 5.03445 3.16533C4.86428 3.43278 4.68121 3.79558 4.40727 4.34338L2.98331 7.94298C2.82237 8.34979 2.70067 8.72459 2.66757 9.0542C2.63574 9.37121 2.69212 9.57346 2.8087 9.72128C3.04416 10.0199 3.40666 10.2093 3.81386 10.2093C4.52028 10.2093 5.09293 9.63665 5.09293 8.93023C5.09293 8.50639 5.43653 8.16279 5.86037 8.16279C6.28423 8.16279 6.62781 8.50639 6.62781 8.93023Z" fill="#A8B5DB"/>
</svg>
